<svg version="1" xmlns="http://www.w3.org/2000/svg" width="1365.333" height="1365.333" viewBox="0 0 1024.000000 1024.000000"><path d="M497.9 90.4c-.2.2-9.4.7-20.4 1-32 1.1-56.4 2.1-73.5 3.1-4.1.2-11.5.7-16.5 1-13.6.7-24.4 1.5-30 2-9.4.8-24 1.9-26.7 2-1.6 0-2.8.2-2.8.5s-1.2.5-2.7.5c-3.7.1-18.7 1.6-19.3 2-.4.2-6 .9-16 2-4.7.5-23.5 3.6-36.5 6.1-15.4 3-13.4 2.6-26.5 5.9-5.8 1.4-11.4 2.8-12.6 3-7.2 1.6-34.7 10.9-46.4 15.8-51.8 21.5-88.4 50.2-120.9 94.7-3.9 5.2-7.5 10.1-8.1 10.7-5.2 6-19.8 31.8-24.8 44-5 12.1-9.8 31.5-10.7 43.1-.4 4.6-.8 9.3-1 10.4C.4 349 .2 369 2.1 375.8c4.4 16.2 20.3 30.7 39.2 35.8 5.2 1.4 20 1.4 92.7-.1 12.9-.2 37-.7 53.6-1 16.6-.3 31.7-.8 33.5-1 11.9-1.5 23.3-9.4 29.4-20.3 2.6-4.6 6.1-16 6.9-22.7 2.1-16.1 2.8-20 4.7-25.1 6-15.9 18.8-33.2 30.3-40.8 5.4-3.6 12.9-7.6 18.6-10 4-1.6 18.7-6.5 21.6-7 1-.2 5.5-1.4 9.9-2.5 4.4-1.2 9.4-2.4 11-2.7 1.7-.3 4.6-.9 6.5-1.4 1.9-.5 5.1-1.2 7-1.5 1.9-.3 4.6-.8 6-1 1.4-.3 3.6-.7 5-1 1.4-.3 3.6-.7 5-1 3-.5 10.6-1.7 14-2 2.4-.3 7.7-1 15-2 2-.3 6-.7 9-1 3-.2 8-.7 11-1 31-2.9 96.2-4 127-2.2 6.9.5 15.4 1 19 1.2 9.7.6 19.5 1.5 29 2.6 4.7.6 10.2 1.2 12.3 1.4 8.9.8 37 5.9 53.2 9.7 7.2 1.6 13.7 3.1 14.5 3.3 5.4 1.1 25.7 8.3 31.5 11.2 12 5.9 12.6 6.4 20.5 14.2 14.4 14.1 23.5 31.5 25.5 48.6 2 17 4.4 26.3 8.9 33.9 6 10.2 16 17 28.1 19 1.6.3 18 .8 36.5 1.1 18.4.4 42.5.8 53.5 1 75 1.6 86.7 1.6 93.2-.5 20.1-6.3 34-20.4 38.3-38.9 1.2-5.1.9-19.2-.5-26.1-.5-2.6-1-7.6-2-19-1.5-17-7.3-36.2-16.9-55.8-4.4-8.8-18.7-31.5-23.6-37.5-.6-.7-4.2-5.5-8.1-10.7-17.4-23.1-35.7-40.7-60.3-57.9-4.8-3.4-8.9-6.1-9.1-6.1-.3 0-3.1-1.7-6.2-3.7-6.4-4.1-22.9-12.4-36.2-18.2-14.3-6.3-47.5-17.3-62.1-20.5-1.4-.3-6.5-1.5-11.5-2.6-8.5-1.9-20.4-4.3-27-5.4-12.5-2.1-15.5-2.6-19-3.1-2.2-.3-5.8-.8-8-1.1-2.2-.2-5.1-.7-6.5-.9-1.4-.2-5-.7-8-1-3-.3-6.6-.8-8-1-1.4-.2-5.6-.6-9.5-1-3.8-.3-8.1-.8-9.5-1-1.4-.2-6.3-.7-11-1-4.7-.3-10.7-.8-13.4-1-2.7-.2-9.2-.7-14.5-1.1-5.3-.3-11.8-.7-14.6-.9-2.7-.2-10.8-.6-18-1-7.1-.3-16.4-.7-20.5-1-7.7-.4-32.5-1.4-48.5-2-20.6-.8-52.2-1.4-52.6-1.1z"/><path d="M485.8 306.5c-.1.1-7.5.6-16.3.9-8.8.4-18.6.8-21.8 1.1-12.6.9-20.3 1.5-22.7 1.9-1.4.3-5.4.7-9 1-3.6.4-7.6.8-8.9 1.1-1.3.2-4.4.7-6.9 1-4 .4-18.3 3-23.7 4.2-1.1.2-3.1.6-4.5.8-1.4.2-3.6.7-5 1-1.4.3-3.6.8-5 1.1-1.4.3-4.1.9-6 1.5-1.9.6-4.8 1.3-6.4 1.5-5 1-23.4 7.3-28.5 9.8-5.6 2.9-11.8 9.6-16 17.6-2.3 4.2-3.3 8.2-4.5 17-.8 6.3-1.7 12.4-2 13.5-2.3 10.8-7.2 24.7-10.8 30.9-9.5 16.1-31.3 35.1-56.3 49-3.9 2.2-11 7.1-11.3 7.8-.2.5-.8.8-1.3.8-1 0-.9-.1-14.4 11-12.1 10-30.4 28.3-47.5 47.5-2 2.2-6.1 7.4-9.3 11.5-3.1 4.1-6.1 8-6.6 8.6-2 2.5-14.9 22.3-18.1 27.9-1.9 3.3-3.9 6.7-4.5 7.6-2 3.3-16.2 31.5-18 35.9-5.8 14.1-10.1 26.3-13 37.6-1.4 5.3-2.7 10.6-2.9 11.8-.2 1.1-.9 4.1-1.4 6.6-.6 2.5-1.3 6.3-1.6 8.5-.4 2.3-.8 5-1 6.2-1 5.1-2 13.3-3.2 25.9-.4 4.6-.4 19.4 0 97.9.3 56.3.4 58.2 2.5 64.6 4 12.6 14.3 24.7 25.5 30.2 9.5 4.7 15.2 5.5 36.8 5.7 23.9.1 25.2.6 26.4 9.3.6 4.3 2.3 6.8 5.7 8.1 4.6 1.8 126.2 1.6 129.4-.2 2.7-1.5 3.9-3.6 4.6-7.8.7-4.6 2.5-7.4 5.3-8.4 1.6-.6 76.9-1 198.6-1 195.7 0 196 0 198.9 2 1.9 1.4 3 3.3 3.4 5.8.4 2 1 4.7 1.6 6 1.9 4.8 3 4.9 70.1 4.8l62.8-.1 2.4-2.5c1.3-1.4 2.7-4.2 3-6.3.8-4.8 2.4-7.4 5.6-8.6 1.4-.6 12.2-1.2 24-1.4 24.4-.5 26.8-1 38.5-8.3 9.1-5.7 16.4-15.2 20.7-27.1 2.1-5.6 2.2-7.5 2.5-67.3.2-33.8.4-66.2.5-72 .1-10.3-.9-32-1.7-36.1-.2-1.2-.7-4.2-1-6.8-6.3-48.3-24.2-93.2-55.9-140.1-13.6-20.2-23.2-31.4-46.6-55-15.4-15.4-18.9-18.6-28.6-26.1-10.6-8.1-10.9-8.3-25.9-17.5-21.8-13.4-40-29.2-49.2-42.9-5-7.4-10.6-22.5-12.8-34.2-.3-1.6-.7-3.8-.9-5-.3-1.2-.7-4.8-1.1-8-1.1-10.6-1.6-12.4-5.2-18.5-7.5-12.7-14.1-17.4-33.3-23.2-10.1-3-35.3-8.9-46-10.6-4.1-.7-8.4-1.4-9.5-1.6-6.9-1.4-15.8-2.5-30-3.9-3.3-.3-8-.7-10.5-1-4.1-.4-11.8-1-29-2.1-8.3-.5-72.7-1.4-73.2-.9z"/></svg>